<?xml version="1.0" encoding="UTF-8" standalone="no"?>
<!-- Created with Inkscape (http://www.inkscape.org/) -->

<svg
   width="103.42022mm"
   height="58.585892mm"
   viewBox="0 0 103.42022 58.585892"
   version="1.1"
   id="svg5"
   inkscape:version="1.1.2 (0a00cf5339, 2022-02-04, custom)"
   sodipodi:docname="logo.svg"
   inkscape:export-filename="C:\Users\trmid\Downloads\pool-limo-logo.png"
   inkscape:export-xdpi="98.955849"
   inkscape:export-ydpi="98.955849"
   xmlns:inkscape="http://www.inkscape.org/namespaces/inkscape"
   xmlns:sodipodi="http://sodipodi.sourceforge.net/DTD/sodipodi-0.dtd"
   xmlns:xlink="http://www.w3.org/1999/xlink"
   xmlns="http://www.w3.org/2000/svg"
   xmlns:svg="http://www.w3.org/2000/svg">
  <sodipodi:namedview
     id="namedview7"
     pagecolor="#ffffff"
     bordercolor="#111111"
     borderopacity="1"
     inkscape:pageshadow="0"
     inkscape:pageopacity="0"
     inkscape:pagecheckerboard="1"
     inkscape:document-units="mm"
     showgrid="false"
     inkscape:zoom="1.5447391"
     inkscape:cx="164.42906"
     inkscape:cy="85.451323"
     inkscape:window-width="1920"
     inkscape:window-height="1017"
     inkscape:window-x="-8"
     inkscape:window-y="32"
     inkscape:window-maximized="1"
     inkscape:current-layer="layer9"
     lock-margins="true"
     fit-margin-top="1"
     fit-margin-left="1"
     fit-margin-right="1"
     fit-margin-bottom="1"
     inkscape:snap-page="true" />
  <defs
     id="defs2">
    <linearGradient
       inkscape:collect="always"
       id="linearGradient80902">
      <stop
         style="stop-color:#da887a;stop-opacity:1"
         offset="0"
         id="stop80898" />
      <stop
         style="stop-color:#cf6c62;stop-opacity:1"
         offset="1"
         id="stop80900" />
    </linearGradient>
    <linearGradient
       inkscape:collect="always"
       id="linearGradient65693">
      <stop
         style="stop-color:#49454a;stop-opacity:1"
         offset="0"
         id="stop65689" />
      <stop
         style="stop-color:#363439;stop-opacity:1"
         offset="1"
         id="stop65691" />
    </linearGradient>
    <linearGradient
       inkscape:collect="always"
       id="linearGradient35911">
      <stop
         style="stop-color:#6bd5e5;stop-opacity:1"
         offset="0"
         id="stop35907" />
      <stop
         style="stop-color:#57bfcb;stop-opacity:1"
         offset="1"
         id="stop35909" />
    </linearGradient>
    <linearGradient
       inkscape:collect="always"
       id="linearGradient15971">
      <stop
         style="stop-color:#9fe3ed;stop-opacity:1"
         offset="0"
         id="stop15967" />
      <stop
         style="stop-color:#5bc4d2;stop-opacity:1"
         offset="1"
         id="stop15969" />
    </linearGradient>
    <inkscape:path-effect
       effect="bspline"
       id="path-effect15965"
       is_visible="true"
       lpeversion="1"
       weight="33.333333"
       steps="2"
       helper_size="0"
       apply_no_weight="true"
       apply_with_weight="true"
       only_selected="false" />
    <linearGradient
       inkscape:collect="always"
       id="linearGradient13298">
      <stop
         style="stop-color:#edf2f6;stop-opacity:1"
         offset="0"
         id="stop13294" />
      <stop
         style="stop-color:#8da5b2;stop-opacity:1"
         offset="1"
         id="stop13296" />
    </linearGradient>
    <linearGradient
       inkscape:collect="always"
       id="linearGradient3223">
      <stop
         style="stop-color:#585c68;stop-opacity:1"
         offset="0"
         id="stop3219" />
      <stop
         style="stop-color:#2f3032;stop-opacity:1"
         offset="1"
         id="stop3221" />
    </linearGradient>
    <linearGradient
       inkscape:collect="always"
       xlink:href="#linearGradient3223"
       id="linearGradient3225"
       x1="75.029778"
       y1="113.63469"
       x2="75.029778"
       y2="125.86715"
       gradientUnits="userSpaceOnUse" />
    <linearGradient
       inkscape:collect="always"
       xlink:href="#linearGradient13298"
       id="linearGradient10465"
       gradientUnits="userSpaceOnUse"
       x1="75.029778"
       y1="113.63469"
       x2="75.029778"
       y2="125.86715"
       gradientTransform="matrix(0.54901959,0,0,0.54901959,33.782342,54.032629)" />
    <linearGradient
       inkscape:collect="always"
       xlink:href="#linearGradient3223"
       id="linearGradient15925"
       gradientUnits="userSpaceOnUse"
       x1="75.029778"
       y1="113.63469"
       x2="75.029778"
       y2="125.86715" />
    <linearGradient
       inkscape:collect="always"
       xlink:href="#linearGradient13298"
       id="linearGradient15927"
       gradientUnits="userSpaceOnUse"
       gradientTransform="matrix(0.54901959,0,0,0.54901959,33.782342,54.032629)"
       x1="75.029778"
       y1="113.63469"
       x2="75.029778"
       y2="125.86715" />
    <linearGradient
       inkscape:collect="always"
       xlink:href="#linearGradient15971"
       id="linearGradient15973"
       x1="56.681091"
       y1="126.07909"
       x2="154.54076"
       y2="126.07909"
       gradientUnits="userSpaceOnUse" />
    <linearGradient
       inkscape:collect="always"
       xlink:href="#linearGradient35911"
       id="linearGradient55094"
       gradientUnits="userSpaceOnUse"
       x1="56.681091"
       y1="108.33598"
       x2="154.35909"
       y2="108.33598"
       gradientTransform="scale(3.7795276)" />
    <linearGradient
       inkscape:collect="always"
       xlink:href="#linearGradient65693"
       id="linearGradient65695"
       x1="56.681091"
       y1="108.33598"
       x2="154.35909"
       y2="108.33598"
       gradientUnits="userSpaceOnUse" />
    <linearGradient
       inkscape:collect="always"
       xlink:href="#linearGradient65693"
       id="linearGradient80768"
       gradientUnits="userSpaceOnUse"
       x1="56.681091"
       y1="108.33598"
       x2="154.35909"
       y2="108.33598"
       gradientTransform="scale(3.7795276)" />
    <linearGradient
       inkscape:collect="always"
       xlink:href="#linearGradient80902"
       id="linearGradient80904"
       x1="56.681293"
       y1="114.20982"
       x2="154.35905"
       y2="114.20982"
       gradientUnits="userSpaceOnUse" />
    <linearGradient
       inkscape:collect="always"
       xlink:href="#linearGradient65693"
       id="linearGradient109031"
       x1="63.07201"
       y1="137.55099"
       x2="147.89383"
       y2="137.55099"
       gradientUnits="userSpaceOnUse"
       gradientTransform="translate(-3.8684997,3.5968858)" />
    <linearGradient
       inkscape:collect="always"
       xlink:href="#linearGradient65693"
       id="linearGradient109039"
       x1="63.07201"
       y1="137.55099"
       x2="147.89383"
       y2="137.55099"
       gradientUnits="userSpaceOnUse"
       gradientTransform="translate(-3.8684997,3.5968858)" />
    <linearGradient
       inkscape:collect="always"
       xlink:href="#linearGradient65693"
       id="linearGradient5065"
       gradientUnits="userSpaceOnUse"
       gradientTransform="translate(-3.8684997,3.5968858)"
       x1="63.07201"
       y1="137.55099"
       x2="147.89383"
       y2="137.55099" />
    <linearGradient
       inkscape:collect="always"
       xlink:href="#linearGradient65693"
       id="linearGradient5067"
       gradientUnits="userSpaceOnUse"
       gradientTransform="translate(-3.8684997,3.5968858)"
       x1="63.07201"
       y1="137.55099"
       x2="147.89383"
       y2="137.55099" />
    <linearGradient
       inkscape:collect="always"
       xlink:href="#linearGradient65693"
       id="linearGradient5069"
       gradientUnits="userSpaceOnUse"
       gradientTransform="translate(-3.8684997,3.5968858)"
       x1="63.07201"
       y1="137.55099"
       x2="147.89383"
       y2="137.55099" />
    <linearGradient
       inkscape:collect="always"
       xlink:href="#linearGradient65693"
       id="linearGradient5071"
       gradientUnits="userSpaceOnUse"
       gradientTransform="translate(-3.8684997,3.5968858)"
       x1="63.07201"
       y1="137.55099"
       x2="147.89383"
       y2="137.55099" />
    <linearGradient
       inkscape:collect="always"
       xlink:href="#linearGradient65693"
       id="linearGradient5073"
       gradientUnits="userSpaceOnUse"
       gradientTransform="translate(-3.8684997,3.5968858)"
       x1="63.07201"
       y1="137.55099"
       x2="147.89383"
       y2="137.55099" />
    <linearGradient
       inkscape:collect="always"
       xlink:href="#linearGradient65693"
       id="linearGradient5075"
       gradientUnits="userSpaceOnUse"
       gradientTransform="translate(-3.8684997,3.5968858)"
       x1="63.07201"
       y1="137.55099"
       x2="147.89383"
       y2="137.55099" />
    <linearGradient
       inkscape:collect="always"
       xlink:href="#linearGradient65693"
       id="linearGradient5077"
       gradientUnits="userSpaceOnUse"
       gradientTransform="translate(-3.8684997,3.5968858)"
       x1="63.07201"
       y1="137.55099"
       x2="147.89383"
       y2="137.55099" />
    <linearGradient
       inkscape:collect="always"
       xlink:href="#linearGradient65693"
       id="linearGradient5079"
       gradientUnits="userSpaceOnUse"
       gradientTransform="translate(-3.8684997,3.5968858)"
       x1="63.07201"
       y1="137.55099"
       x2="147.89383"
       y2="137.55099" />
    <linearGradient
       inkscape:collect="always"
       xlink:href="#linearGradient65693"
       id="linearGradient5081"
       gradientUnits="userSpaceOnUse"
       gradientTransform="translate(-3.8684997,3.5968858)"
       x1="63.07201"
       y1="137.55099"
       x2="147.89383"
       y2="137.55099" />
    <linearGradient
       inkscape:collect="always"
       xlink:href="#linearGradient65693"
       id="linearGradient5083"
       gradientUnits="userSpaceOnUse"
       gradientTransform="translate(-3.8684997,3.5968858)"
       x1="63.07201"
       y1="137.55099"
       x2="147.89383"
       y2="137.55099" />
    <linearGradient
       inkscape:collect="always"
       xlink:href="#linearGradient65693"
       id="linearGradient5085"
       gradientUnits="userSpaceOnUse"
       gradientTransform="translate(-3.8684997,3.5968858)"
       x1="63.07201"
       y1="137.55099"
       x2="147.89383"
       y2="137.55099" />
    <linearGradient
       inkscape:collect="always"
       xlink:href="#linearGradient65693"
       id="linearGradient5087"
       gradientUnits="userSpaceOnUse"
       gradientTransform="translate(-3.8684997,3.5968858)"
       x1="63.07201"
       y1="137.55099"
       x2="147.89383"
       y2="137.55099" />
    <linearGradient
       inkscape:collect="always"
       xlink:href="#linearGradient65693"
       id="linearGradient5089"
       gradientUnits="userSpaceOnUse"
       gradientTransform="translate(-3.8684997,3.5968858)"
       x1="63.07201"
       y1="137.55099"
       x2="147.89383"
       y2="137.55099" />
    <linearGradient
       inkscape:collect="always"
       xlink:href="#linearGradient65693"
       id="linearGradient5091"
       gradientUnits="userSpaceOnUse"
       gradientTransform="translate(-3.8684997,3.5968858)"
       x1="63.07201"
       y1="137.55099"
       x2="147.89383"
       y2="137.55099" />
    <linearGradient
       inkscape:collect="always"
       xlink:href="#linearGradient65693"
       id="linearGradient5093"
       gradientUnits="userSpaceOnUse"
       gradientTransform="translate(-3.8684997,3.5968858)"
       x1="63.07201"
       y1="137.55099"
       x2="147.89383"
       y2="137.55099" />
    <linearGradient
       inkscape:collect="always"
       xlink:href="#linearGradient65693"
       id="linearGradient5095"
       gradientUnits="userSpaceOnUse"
       gradientTransform="translate(-3.8684997,3.5968858)"
       x1="63.07201"
       y1="137.55099"
       x2="147.89383"
       y2="137.55099" />
    <linearGradient
       inkscape:collect="always"
       xlink:href="#linearGradient65693"
       id="linearGradient5097"
       gradientUnits="userSpaceOnUse"
       gradientTransform="translate(-3.8684997,3.5968858)"
       x1="63.07201"
       y1="137.55099"
       x2="147.89383"
       y2="137.55099" />
    <linearGradient
       inkscape:collect="always"
       xlink:href="#linearGradient65693"
       id="linearGradient5099"
       gradientUnits="userSpaceOnUse"
       gradientTransform="translate(-3.8684997,3.5968858)"
       x1="63.07201"
       y1="137.55099"
       x2="147.89383"
       y2="137.55099" />
  </defs>
  <g
     inkscape:groupmode="layer"
     id="layer9"
     inkscape:label="BG"
     transform="translate(-14,-14)" />
  <g
     inkscape:groupmode="layer"
     id="layer3"
     inkscape:label="Platform"
     style="opacity:1"
     transform="translate(-53.809978,-93.952858)">
    <path
       style="fill:none;stroke:url(#linearGradient15973);stroke-width:3.5;stroke-linecap:round;stroke-linejoin:miter;stroke-miterlimit:4;stroke-dasharray:none;stroke-opacity:1"
       d="m 56.559978,126.07909 c 32.640338,0 65.280412,0 97.920222,0"
       id="path15963"
       inkscape:path-effect="#path-effect15965"
       inkscape:original-d="m 56.559978,126.07909 c 32.640338,2.6e-4 65.280412,2.6e-4 97.920222,0"
       sodipodi:nodetypes="cc" />
    <g
       aria-label="pool.limo"
       id="text106949"
       style="font-weight:bold;font-size:19.7556px;line-height:1.25;font-family:Comfortaa;-inkscape-font-specification:'Comfortaa Bold';letter-spacing:0px;word-spacing:0px;fill:url(#linearGradient109031);stroke:url(#linearGradient109039);stroke-width:0.6">
      <path
         d="m 59.721539,151.23875 c -0.289749,0 -0.533401,-0.0988 -0.730957,-0.29634 -0.184386,-0.18439 -0.276579,-0.42145 -0.276579,-0.7112 v -9.00855 c 0.01317,-1.04046 0.256826,-1.97556 0.730958,-2.8053 0.474134,-0.82973 1.119483,-1.48167 1.936048,-1.9558 0.816565,-0.48731 1.738493,-0.73096 2.765784,-0.73096 1.040462,0 1.968975,0.24365 2.78554,0.73096 0.816564,0.47413 1.461914,1.12607 1.936049,1.9558 0.487304,0.82974 0.730957,1.76484 0.730957,2.8053 0,1.04046 -0.223897,1.97556 -0.67169,2.80529 -0.434624,0.81657 -1.033877,1.4685 -1.79776,1.95581 -0.763884,0.47413 -1.626545,0.7112 -2.587984,0.7112 -0.777054,0 -1.49484,-0.15805 -2.15336,-0.47414 -0.64535,-0.32926 -1.198506,-0.77047 -1.65947,-1.32362 v 5.33401 c 0,0.28975 -0.09219,0.52681 -0.276579,0.7112 -0.184386,0.19756 -0.428038,0.29634 -0.730957,0.29634 z m 4.425254,-6.3218 c 0.67169,0 1.270944,-0.15804 1.79776,-0.47413 0.526816,-0.32926 0.941683,-0.77047 1.244603,-1.32362 0.316089,-0.56633 0.474134,-1.19851 0.474134,-1.89654 0,-0.7112 -0.158045,-1.34338 -0.474134,-1.89654 -0.30292,-0.56633 -0.717787,-1.00754 -1.244603,-1.32363 -0.526816,-0.32926 -1.12607,-0.49389 -1.79776,-0.49389 -0.65852,0 -1.257773,0.16463 -1.797759,0.49389 -0.526816,0.31609 -0.941684,0.7573 -1.244603,1.32363 -0.30292,0.55316 -0.454379,1.18534 -0.454379,1.89654 0,0.69803 0.151459,1.33021 0.454379,1.89654 0.302919,0.55315 0.717787,0.99436 1.244603,1.32362 0.539986,0.31609 1.139239,0.47413 1.797759,0.47413 z"
         id="path110599"
         sodipodi:nodetypes="ssscscsccsccsccscssccsccsccsccs"
         style="fill:url(#linearGradient5065);stroke:url(#linearGradient5067)" />
      <path
         d="m 77.501561,146.69496 c -1.066802,0 -2.008486,-0.23048 -2.82505,-0.69145 -0.816566,-0.47413 -1.461915,-1.11948 -1.936049,-1.93605 -0.460964,-0.82973 -0.691446,-1.778 -0.691446,-2.8448 0,-1.07997 0.230482,-2.02824 0.691446,-2.84481 0.474134,-0.82973 1.119483,-1.47508 1.936049,-1.93605 0.816564,-0.47413 1.758248,-0.7112 2.82505,-0.7112 1.053632,0 1.98873,0.23707 2.805296,0.7112 0.816564,0.46097 1.455329,1.10632 1.916293,1.93605 0.474134,0.81657 0.711201,1.76484 0.711201,2.84481 0,1.0668 -0.230482,2.01507 -0.691446,2.8448 -0.460964,0.81657 -1.099729,1.46192 -1.916293,1.93605 -0.816565,0.46097 -1.758249,0.69145 -2.825051,0.69145 z m 0,-1.77801 c 0.684861,0 1.2907,-0.15804 1.817516,-0.47413 0.526816,-0.31609 0.935098,-0.75071 1.224847,-1.30387 0.302919,-0.55315 0.454379,-1.19192 0.454379,-1.91629 0,-0.72437 -0.15146,-1.36314 -0.454379,-1.9163 -0.289749,-0.56633 -0.698031,-1.00753 -1.224847,-1.32362 -0.526816,-0.31609 -1.132655,-0.47414 -1.817516,-0.47414 -0.684861,0 -1.290699,0.15805 -1.817515,0.47414 -0.526816,0.31609 -0.941684,0.75729 -1.244603,1.32362 -0.302919,0.55316 -0.454378,1.19193 -0.454378,1.9163 0,0.72437 0.151459,1.36314 0.454378,1.91629 0.302919,0.55316 0.717787,0.98778 1.244603,1.30387 0.526816,0.31609 1.132654,0.47413 1.817515,0.47413 z"
         id="path110601"
         sodipodi:nodetypes="sccsccsccsccssscscssscssss"
         style="fill:url(#linearGradient5069);stroke:url(#linearGradient5071)" />
      <path
         d="m 90.836577,146.69496 c -1.066803,0 -2.008487,-0.23048 -2.825051,-0.69145 -0.816565,-0.47413 -1.461915,-1.11948 -1.936049,-1.93605 -0.460964,-0.82973 -0.691446,-1.778 -0.691446,-2.8448 0,-1.07997 0.230482,-2.02824 0.691446,-2.84481 0.474134,-0.82973 1.119484,-1.47508 1.936049,-1.93605 0.816564,-0.47413 1.758248,-0.7112 2.825051,-0.7112 1.053632,0 1.98873,0.23707 2.805295,0.7112 0.816564,0.46097 1.455329,1.10632 1.916293,1.93605 0.474134,0.81657 0.711202,1.76484 0.711202,2.84481 0,1.0668 -0.230482,2.01507 -0.691446,2.8448 -0.460964,0.81657 -1.099729,1.46192 -1.916293,1.93605 -0.816566,0.46097 -1.758249,0.69145 -2.825051,0.69145 z m 0,-1.77801 c 0.68486,0 1.290699,-0.15804 1.817515,-0.47413 0.526816,-0.31609 0.935098,-0.75071 1.224847,-1.30387 0.302919,-0.55315 0.454379,-1.19192 0.454379,-1.91629 0,-0.72437 -0.15146,-1.36314 -0.454379,-1.9163 -0.289749,-0.56633 -0.698031,-1.00753 -1.224847,-1.32362 -0.526816,-0.31609 -1.132655,-0.47414 -1.817515,-0.47414 -0.684861,0 -1.290699,0.15805 -1.817515,0.47414 -0.526816,0.31609 -0.941684,0.75729 -1.244603,1.32362 -0.30292,0.55316 -0.454379,1.19193 -0.454379,1.9163 0,0.72437 0.151459,1.36314 0.454379,1.91629 0.302919,0.55316 0.717787,0.98778 1.244603,1.30387 0.526816,0.31609 1.132654,0.47413 1.817515,0.47413 z"
         id="path110603"
         sodipodi:nodetypes="sccsccsccsccssscscssscssss"
         style="fill:url(#linearGradient5073);stroke:url(#linearGradient5075)" />
      <path
         d="m 101.84043,146.61594 c -0.57949,0 -1.09314,-0.15805 -1.54093,-0.47414 -0.447795,-0.31609 -0.796811,-0.74412 -1.047051,-1.28411 -0.250238,-0.55316 -0.375357,-1.18534 -0.375357,-1.89654 v -10.78656 c 0,-0.28975 0.09219,-0.52681 0.276577,-0.7112 0.184386,-0.18439 0.421453,-0.27658 0.7112,-0.27658 0.289751,0 0.526821,0.0922 0.711201,0.27658 0.18439,0.18439 0.27658,0.42145 0.27658,0.7112 v 10.78656 c 0,0.48731 0.0922,0.889 0.27658,1.20509 0.18439,0.31609 0.42145,0.47414 0.7112,0.47414 h 0.49389 c 0.26341,0 0.47414,0.0922 0.63218,0.27657 0.17122,0.18439 0.25683,0.42146 0.25683,0.71121 0,0.28975 -0.12512,0.52681 -0.37536,0.7112 -0.25024,0.18439 -0.57292,0.27658 -0.96803,0.27658 z"
         id="path110605"
         sodipodi:nodetypes="sscsssssssssscssss"
         style="fill:url(#linearGradient5077);stroke:url(#linearGradient5079)" />
      <path
         d="m 107.35486,146.93203 c -0.36877,0 -0.69145,-0.13171 -0.96802,-0.39512 -0.26341,-0.27657 -0.39512,-0.59925 -0.39512,-0.96802 0,-0.38194 0.13171,-0.70461 0.39512,-0.96802 0.27657,-0.27658 0.59925,-0.41487 0.96802,-0.41487 0.38194,0 0.70461,0.13829 0.96802,0.41487 0.26341,0.26341 0.39512,0.58608 0.39512,0.96802 0,0.36877 -0.13171,0.69145 -0.39512,0.96802 -0.26341,0.26341 -0.58608,0.39512 -0.96802,0.39512 z"
         id="path110607"
         sodipodi:nodetypes="scssscscs"
         style="fill:url(#linearGradient5081);stroke:url(#linearGradient5083)" />
      <path
         d="m 114.60995,146.61594 c -0.5795,0 -1.09314,-0.15805 -1.54094,-0.47414 -0.44779,-0.31609 -0.79681,-0.74412 -1.04705,-1.28411 -0.25023,-0.55316 -0.37535,-1.18534 -0.37535,-1.89654 v -10.78656 c 0,-0.28975 0.0922,-0.52681 0.27657,-0.7112 0.18439,-0.18439 0.42146,-0.27658 0.71121,-0.27658 0.28975,0 0.52682,0.0922 0.7112,0.27658 0.18439,0.18439 0.27658,0.42145 0.27658,0.7112 v 10.78656 c 0,0.48731 0.0922,0.889 0.27657,1.20509 0.18439,0.31609 0.42146,0.47414 0.71121,0.47414 h 0.49389 c 0.26341,0 0.47414,0.0922 0.63218,0.27657 0.17122,0.18439 0.25682,0.42146 0.25682,0.71121 0,0.28975 -0.12512,0.52681 -0.37536,0.7112 -0.25023,0.18439 -0.5729,0.27658 -0.96802,0.27658 z"
         id="path110609"
         sodipodi:nodetypes="sscsssssssssscssss"
         style="fill:url(#linearGradient5085);stroke:url(#linearGradient5087)" />
      <path
         d="m 119.17348,146.61594 c -0.28975,0 -0.5334,-0.0922 -0.73096,-0.27658 -0.18438,-0.19756 -0.27658,-0.44121 -0.27658,-0.73096 v -8.79124 c 0,-0.30292 0.0922,-0.54657 0.27658,-0.73096 0.19756,-0.18439 0.44121,-0.27658 0.73096,-0.27658 0.30292,0 0.54657,0.0922 0.73095,0.27658 0.18439,0.18439 0.27658,0.42804 0.27658,0.73096 v 8.79124 c 0,0.28975 -0.0922,0.5334 -0.27658,0.73096 -0.18438,0.18439 -0.42803,0.27658 -0.73095,0.27658 z m 0,-12.56457 c -0.3556,0 -0.6651,-0.12512 -0.92852,-0.37535 -0.25023,-0.26341 -0.37535,-0.57291 -0.37535,-0.92851 0,-0.35561 0.12512,-0.65853 0.37535,-0.90876 0.26342,-0.26341 0.57292,-0.39511 0.92852,-0.39511 0.3556,0 0.65852,0.1317 0.90875,0.39511 0.26342,0.25023 0.39512,0.55315 0.39512,0.90876 0,0.3556 -0.1317,0.6651 -0.39512,0.92851 -0.25023,0.25023 -0.55315,0.37535 -0.90875,0.37535 z"
         id="path110611"
         sodipodi:nodetypes="scsscsssscsscssscsss"
         style="fill:url(#linearGradient5089);stroke:url(#linearGradient5091)" />
      <path
         d="m 138.1191,146.63569 c -0.28975,0 -0.5334,-0.0922 -0.73096,-0.27658 -0.18438,-0.19755 -0.27658,-0.4412 -0.27658,-0.73095 v -5.65011 c 0,-0.82973 -0.20414,-1.44216 -0.61242,-1.83727 -0.40828,-0.40828 -0.94169,-0.61242 -1.60021,-0.61242 -0.68486,0 -1.25118,0.23707 -1.69898,0.7112 -0.43462,0.47413 -0.65193,1.07997 -0.65193,1.81752 h -1.63972 c 0,-0.85608 0.18439,-1.60679 0.55316,-2.25214 0.36878,-0.65852 0.88242,-1.17217 1.54094,-1.54094 0.67169,-0.36877 1.43557,-0.55315 2.29165,-0.55315 0.75071,0 1.41581,0.16463 1.99531,0.49389 0.5795,0.32926 1.0273,0.81656 1.34338,1.46191 0.32926,0.63218 0.49389,1.40265 0.49389,2.3114 v 5.65011 c 0,0.28975 -0.0922,0.5334 -0.27658,0.73095 -0.18438,0.18439 -0.42803,0.27658 -0.73095,0.27658 z m -13.17699,0 c -0.28974,0 -0.5334,-0.0922 -0.73096,-0.27658 -0.18438,-0.19755 -0.27657,-0.4412 -0.27657,-0.73095 v -8.79125 c 0,-0.30291 0.0922,-0.54656 0.27657,-0.73095 0.19756,-0.18439 0.44122,-0.27658 0.73096,-0.27658 0.30292,0 0.54658,0.0922 0.73096,0.27658 0.18439,0.18439 0.27658,0.42804 0.27658,0.73095 v 8.79125 c 0,0.28975 -0.0922,0.5334 -0.27658,0.73095 -0.18438,0.18439 -0.42804,0.27658 -0.73096,0.27658 z m 6.59837,0 c -0.28974,0 -0.5334,-0.0922 -0.73096,-0.27658 -0.18438,-0.19755 -0.27657,-0.4412 -0.27657,-0.73095 v -5.65011 c 0,-0.82973 -0.20414,-1.44216 -0.61243,-1.83727 -0.40828,-0.40828 -0.94168,-0.61242 -1.6002,-0.61242 -0.68486,0 -1.25118,0.23707 -1.69898,0.7112 -0.44779,0.47413 -0.67169,1.07997 -0.67169,1.81752 h -1.24461 c 0,-0.85608 0.17122,-1.60679 0.51365,-2.25214 0.34243,-0.65852 0.81656,-1.17217 1.4224,-1.54094 0.60584,-0.36877 1.29729,-0.55315 2.07434,-0.55315 0.75072,0 1.41582,0.16463 1.99532,0.49389 0.5795,0.32926 1.02729,0.81656 1.34338,1.46191 0.32926,0.63218 0.49389,1.40265 0.49389,2.3114 v 5.65011 c 0,0.28975 -0.0922,0.5334 -0.27658,0.73095 -0.18438,0.18439 -0.42804,0.27658 -0.73096,0.27658 z"
         id="path110613"
         sodipodi:nodetypes="scsscscccccsscsscsscsscsssscsscsscsscccssscsscs"
         style="fill:url(#linearGradient5093);stroke:url(#linearGradient5095)" />
      <path
         d="m 147.36471,146.69496 c -1.0668,0 -2.00848,-0.23048 -2.82505,-0.69145 -0.81656,-0.47413 -1.46191,-1.11948 -1.93605,-1.93605 -0.46096,-0.82973 -0.69144,-1.778 -0.69144,-2.8448 0,-1.07997 0.23048,-2.02824 0.69144,-2.84481 0.47414,-0.82973 1.11949,-1.47508 1.93605,-1.93605 0.81657,-0.47413 1.75825,-0.7112 2.82505,-0.7112 1.05364,0 1.98874,0.23707 2.8053,0.7112 0.81657,0.46097 1.45533,1.10632 1.91629,1.93605 0.47414,0.81657 0.7112,1.76484 0.7112,2.84481 0,1.0668 -0.23048,2.01507 -0.69144,2.8448 -0.46096,0.81657 -1.09973,1.46192 -1.9163,1.93605 -0.81656,0.46097 -1.75824,0.69145 -2.82505,0.69145 z m 0,-1.77801 c 0.68487,0 1.29071,-0.15804 1.81752,-0.47413 0.52682,-0.31609 0.9351,-0.75071 1.22485,-1.30387 0.30292,-0.55315 0.45438,-1.19192 0.45438,-1.91629 0,-0.72437 -0.15146,-1.36314 -0.45438,-1.9163 -0.28975,-0.56633 -0.69803,-1.00753 -1.22485,-1.32362 -0.52681,-0.31609 -1.13265,-0.47414 -1.81752,-0.47414 -0.68486,0 -1.29069,0.15805 -1.81751,0.47414 -0.52682,0.31609 -0.94168,0.75729 -1.2446,1.32362 -0.30292,0.55316 -0.45438,1.19193 -0.45438,1.9163 0,0.72437 0.15146,1.36314 0.45438,1.91629 0.30292,0.55316 0.71778,0.98778 1.2446,1.30387 0.52682,0.31609 1.13265,0.47413 1.81751,0.47413 z"
         id="path110615"
         sodipodi:nodetypes="sccsccsccsccssscscssscssss"
         style="fill:url(#linearGradient5097);stroke:url(#linearGradient5099)" />
    </g>
  </g>
  <g
     inkscape:groupmode="layer"
     id="layer4"
     inkscape:label="Bus 0"
     style="display:inline;opacity:1"
     transform="translate(-53.809978,-93.952858)">
    <path
       id="rect26349"
       style="opacity:1;fill:url(#linearGradient65695);stroke-width:3.49999;stroke-linecap:round;stroke-linejoin:round;stroke-opacity:0.762994;paint-order:stroke fill markers"
       d="m 62.681091,97.496324 h 85.677999 c 3.324,0 6,2.675996 6,5.999996 v 12.2227 c 0,3.324 -2.676,6 -6,6 H 62.681091 c -3.324,0 -6,-2.676 -6,-6 v -12.2227 c 0,-3.324 2.676,-5.999996 6,-5.999996 z"
       sodipodi:nodetypes="sssssssss" />
  </g>
  <g
     inkscape:groupmode="layer"
     id="layer5"
     inkscape:label="Bus 1"
     style="display:inline;opacity:1"
     transform="translate(-53.809978,-93.952858)">
    <path
       id="rect38716"
       style="display:inline;opacity:1;fill:url(#linearGradient55094);fill-opacity:1;stroke:none;stroke-width:13.2283;stroke-linecap:round;stroke-linejoin:round;stroke-miterlimit:4;stroke-dasharray:none;stroke-opacity:0.762994;paint-order:stroke fill markers"
       d="m 242.85507,358.87695 c -15.30966,0 -28.62655,14.28036 -28.62655,29.08626 v 49.40007 c 0,3.41187 0.74951,6.64004 2.08789,9.53711 h 364.99804 c 1.33853,-2.8972 2.08985,-6.12504 2.08985,-9.53711 v -49.40007 c 0,-14.42669 -13.7766,-29.08626 -29.08626,-29.08626 z"
       transform="scale(0.26458333)"
       sodipodi:nodetypes="sssccssss" />
  </g>
  <g
     inkscape:groupmode="layer"
     id="layer6"
     inkscape:label="Bus 2"
     style="display:inline"
     transform="translate(-53.809978,-93.952858)">
    <path
       id="rect55120"
       style="opacity:1;fill:#ffffff;stroke-width:3.49999;stroke-linecap:round;stroke-linejoin:round;stroke-opacity:0.762994;paint-order:stroke fill markers"
       d="m 66.255141,97.491409 h 78.375089 c 3.62323,0 6.54012,2.916901 6.54012,6.540131 v 7.432 c 0,3.62323 -2.91689,2.78561 -6.54012,2.78561 H 66.255141 c -3.623229,0 -6.540126,0.83762 -6.540126,-2.78561 v -7.432 c 0,-3.62323 2.916897,-6.540131 6.540126,-6.540131 z"
       sodipodi:nodetypes="sssssssss" />
  </g>
  <g
     inkscape:groupmode="layer"
     id="layer8"
     inkscape:label="Windows"
     transform="translate(-53.809978,-93.952858)">
    <path
       id="rect93678"
       style="opacity:1;fill:#6ad6e8;fill-opacity:0.484234;stroke-width:3.49999;stroke-linecap:round;stroke-linejoin:round;stroke-opacity:0.762994;paint-order:stroke fill markers"
       d="m 66.854621,100.0397 h 82.966389 c 0.83285,1.02432 1.32858,2.12835 1.37399,4.23897 v 2.90673 c 0,2.34839 -0.0151,4.23897 -0.0151,4.23897 H 66.854661 c -2.34839,0 -4.238971,2.13451 -4.238971,-0.21388 v -6.93182 c 0,-2.34839 1.890581,-4.23897 4.238971,-4.23897 z"
       sodipodi:nodetypes="sccccssss" />
    <path
       id="rect98637"
       style="opacity:1;fill:#6ad6e8;fill-opacity:0.484234;stroke:none;stroke-width:13.2283;stroke-linecap:round;stroke-linejoin:round;stroke-miterlimit:4;stroke-dasharray:none;stroke-opacity:0.762994;paint-order:stroke fill markers"
       d="m 237.08984,390.46289 c -0.2735,1.17678 -0.43164,2.39975 -0.43164,3.66211 v 26.19727 c 0,0.0436 0.004,0.0803 0.004,0.12304 h 334.68945 c 0,0 0.0937,-8.08366 0.0937,-15.33593 V 394.125 c -0.0285,-1.32274 -0.10841,-2.5326 -0.22851,-3.66211 z"
       sodipodi:nodetypes="cssccsccc"
       transform="scale(0.26458333)" />
    <path
       id="path99055"
       style="display:inline;opacity:1;fill:#1c8d9e;fill-opacity:0.371622;stroke-width:13.2283;stroke-linecap:round;stroke-linejoin:round;stroke-opacity:0.762994;paint-order:stroke fill markers"
       d="m 225.69531,404.48828 v 15.95703 h 345.73717 v -15.95703 z"
       transform="scale(0.26458333)"
       sodipodi:nodetypes="ccccc" />
    <path
       id="path106128"
       style="display:inline;opacity:1;fill:#1c8d9e;fill-opacity:0.372549;stroke-width:13.2283;stroke-linecap:round;stroke-linejoin:round;stroke-opacity:0.762994;paint-order:stroke fill markers"
       d="m 293.08008,368.4707 v 54.79492 h 23.34375 V 368.4707 Z"
       transform="scale(0.26458333)" />
    <path
       id="path106149"
       style="display:inline;opacity:1;fill:#1c8d9e;fill-opacity:0.372549;stroke-width:13.2283;stroke-linecap:round;stroke-linejoin:round;stroke-opacity:0.762994;paint-order:stroke fill markers"
       d="m 445.85547,368.4707 v 54.79492 h 23.3457 V 368.4707 Z"
       transform="scale(0.26458333)" />
  </g>
  <g
     inkscape:groupmode="layer"
     id="layer7"
     inkscape:label="Bus Stripes"
     style="display:inline;opacity:1"
     transform="translate(-53.809978,-93.952858)">
    <path
       id="rect80558"
       style="display:inline;opacity:1;fill:url(#linearGradient80768);fill-opacity:1;stroke:none;stroke-width:13.2283;stroke-linecap:round;stroke-linejoin:round;stroke-miterlimit:4;stroke-dasharray:none;stroke-opacity:0.762994;paint-order:stroke fill markers"
       d="m 214.22852,417.92773 v 9.1543 H 583.4043 v -9.1543 z"
       transform="scale(0.26458333)" />
    <path
       id="path80876"
       style="display:inline;opacity:1;fill:url(#linearGradient80904);fill-opacity:1;stroke:none;stroke-width:3.49999;stroke-linecap:round;stroke-linejoin:round;stroke-miterlimit:4;stroke-dasharray:none;stroke-opacity:0.762994;paint-order:stroke fill markers"
       d="m 56.681295,112.99879 v 2.42207 h 97.677755 v -2.42207 z" />
  </g>
  <g
     inkscape:groupmode="layer"
     id="layer2"
     inkscape:label="Wheels"
     style="display:inline;opacity:1;mix-blend-mode:normal"
     transform="translate(-53.809978,-93.952858)">
    <g
       id="g15917">
      <circle
         style="opacity:1;fill:url(#linearGradient3225);fill-opacity:1;stroke:none;stroke-width:4.59999;stroke-linecap:round;stroke-linejoin:round;stroke-opacity:0.762994;paint-order:stroke fill markers"
         id="path3119"
         cx="74.908669"
         cy="119.81148"
         r="6.1767855" />
      <circle
         style="opacity:1;fill:url(#linearGradient10465);fill-opacity:1;stroke:none;stroke-width:2.52548;stroke-linecap:round;stroke-linejoin:round;stroke-opacity:0.762994;paint-order:stroke fill markers"
         id="circle10463"
         cx="74.908669"
         cy="119.81148"
         r="3.3911762" />
    </g>
    <g
       id="g15923"
       transform="translate(60.79895)">
      <circle
         style="opacity:1;fill:url(#linearGradient15925);fill-opacity:1;stroke:none;stroke-width:4.59999;stroke-linecap:round;stroke-linejoin:round;stroke-opacity:0.762994;paint-order:stroke fill markers"
         id="circle15919"
         cx="74.908669"
         cy="119.81148"
         r="6.1767855" />
      <circle
         style="opacity:1;fill:url(#linearGradient15927);fill-opacity:1;stroke:none;stroke-width:2.52548;stroke-linecap:round;stroke-linejoin:round;stroke-opacity:0.762994;paint-order:stroke fill markers"
         id="circle15921"
         cx="74.908669"
         cy="119.81148"
         r="3.3911762" />
    </g>
  </g>
</svg>
